# xmcd
#
# Track frame offsets:
#	150
#	15114
#	28791
#	45290
#
# Disc length: 848 seconds
#
# Revision: 1
# Processed by: cddbd v1.5.2PL0 Copyright (c) Steve Scherf et al.
# Submitted via: audiograbber 1.83.01
#
DISCID=1c034e04
DTITLE=GT 500 - Promo
DYEAR=2002
DGENRE=Rock
TTITLE0=K-Opener
TTITLE1=M Is Take
TTITLE2=Change Identity
TTITLE3=Drunken Mirror
EXTD=
EXTT0=
EXTT1=
EXTT2=
EXTT3=
PLAYORDER=
